<svg width="1600" height="900" viewBox="0 0 1600 900" fill="none" xmlns="http://www.w3.org/2000/svg" role="img" aria-labelledby="title desc">
  <title id="title">Capa do projeto Robô Baratinha</title>
  <desc id="desc">Ilustração de placa eletrônica e robótica educacional em tons de azul e cinza.</desc>
  <defs>
    <linearGradient id="bg" x1="160" y1="80" x2="1440" y2="820" gradientUnits="userSpaceOnUse">
      <stop stop-color="#101A26"/>
      <stop offset="1" stop-color="#203648"/>
    </linearGradient>
  </defs>
  <rect width="1600" height="900" rx="48" fill="url(#bg)"/>
  <rect x="120" y="120" width="1360" height="660" rx="36" stroke="#8BB7D9" stroke-opacity="0.18"/>
  <g opacity="0.2" stroke="#9EC7E6" stroke-width="6" stroke-linecap="round">
    <path d="M300 270H540V360H720V260H930"/>
    <path d="M300 440H600V540H900V390H1160"/>
    <path d="M300 620H520V560H740V660H980V520H1260"/>
    <path d="M1140 240V320H1250V410"/>
  </g>
  <g fill="#102A43" stroke="#8BB7D9" stroke-width="8">
    <rect x="320" y="215" width="120" height="120" rx="18"/>
    <rect x="560" y="310" width="120" height="120" rx="18"/>
    <rect x="860" y="215" width="120" height="120" rx="18"/>
    <rect x="1040" y="485" width="150" height="150" rx="24"/>
  </g>
  <circle cx="420" cy="610" r="88" fill="#143A5C" stroke="#D7E0EA" stroke-width="10"/>
  <circle cx="760" cy="610" r="88" fill="#143A5C" stroke="#D7E0EA" stroke-width="10"/>
  <rect x="430" y="470" width="320" height="90" rx="24" fill="#D7E0EA" fill-opacity="0.9"/>
  <path d="M390 590H790" stroke="#7FB4D9" stroke-width="16" stroke-linecap="round"/>
  <text x="160" y="710" fill="#E6EDF5" font-family="IBM Plex Sans, Segoe UI, Arial, sans-serif" font-size="96" font-weight="700">ROBO BARATINHA</text>
  <text x="165" y="775" fill="#A7BBCD" font-family="IBM Plex Sans, Segoe UI, Arial, sans-serif" font-size="34">Pesquisa aplicada . 7+ PCBs . IoT . Springer Nature</text>
</svg>
