<svg width="1600" height="900" viewBox="0 0 1600 900" fill="none" xmlns="http://www.w3.org/2000/svg" role="img" aria-labelledby="title desc">
  <title id="title">Capa do projeto Prognos</title>
  <desc id="desc">Ilustração técnica em azul escuro com elementos de robótica médica.</desc>
  <defs>
    <linearGradient id="bg" x1="160" y1="80" x2="1400" y2="820" gradientUnits="userSpaceOnUse">
      <stop stop-color="#0D2238"/>
      <stop offset="1" stop-color="#173A5A"/>
    </linearGradient>
    <linearGradient id="accent" x1="220" y1="180" x2="1080" y2="760" gradientUnits="userSpaceOnUse">
      <stop stop-color="#7FB4D9" stop-opacity="0.95"/>
      <stop offset="1" stop-color="#3D5F7C" stop-opacity="0.9"/>
    </linearGradient>
  </defs>
  <rect width="1600" height="900" rx="48" fill="url(#bg)"/>
  <g opacity="0.12" stroke="#D7E0EA">
    <path d="M110 170H1490"/>
    <path d="M110 310H1490"/>
    <path d="M110 450H1490"/>
    <path d="M110 590H1490"/>
    <path d="M110 730H1490"/>
    <path d="M240 110V790"/>
    <path d="M520 110V790"/>
    <path d="M800 110V790"/>
    <path d="M1080 110V790"/>
    <path d="M1360 110V790"/>
  </g>
  <rect x="110" y="110" width="1380" height="680" rx="36" stroke="#7FB4D9" stroke-opacity="0.2"/>
  <circle cx="1180" cy="450" r="170" fill="url(#accent)" opacity="0.18"/>
  <rect x="275" y="250" width="250" height="250" rx="42" fill="#102A43" stroke="#7FB4D9" stroke-width="8"/>
  <path d="M400 300V450" stroke="#D7E0EA" stroke-width="28" stroke-linecap="round"/>
  <path d="M325 375H475" stroke="#D7E0EA" stroke-width="28" stroke-linecap="round"/>
  <path d="M670 300H1100" stroke="#7FB4D9" stroke-width="10" stroke-linecap="round"/>
  <path d="M670 360H1050" stroke="#D7E0EA" stroke-width="6" stroke-linecap="round" opacity="0.9"/>
  <path d="M670 410H970" stroke="#D7E0EA" stroke-width="6" stroke-linecap="round" opacity="0.6"/>
  <path d="M980 540C1035 510 1090 510 1145 540C1200 570 1255 570 1310 540" stroke="#7FB4D9" stroke-width="10" stroke-linecap="round"/>
  <circle cx="980" cy="540" r="18" fill="#D7E0EA"/>
  <circle cx="1310" cy="540" r="18" fill="#D7E0EA"/>
  <text x="160" y="690" fill="#D7E0EA" font-family="IBM Plex Sans, Segoe UI, Arial, sans-serif" font-size="108" font-weight="700">PROGNOS</text>
  <text x="165" y="760" fill="#A7BBCD" font-family="IBM Plex Sans, Segoe UI, Arial, sans-serif" font-size="34">ROS . C++ . Navegacao autonoma . Robotica medica</text>
</svg>
